<svg width="18" height="18" viewBox="0 0 18 18" fill="none" xmlns="http://www.w3.org/2000/svg">
<path d="M5.07617 16.3534L0.667002 17.3334L1.647 12.9242C1.00161 11.7171 0.664941 10.369 0.667002 9.00008C0.667002 4.39758 4.39784 0.666748 9.00033 0.666748C13.6028 0.666748 17.3337 4.39758 17.3337 9.00008C17.3337 13.6026 13.6028 17.3334 9.00033 17.3334C7.63146 17.3355 6.28335 16.9988 5.07617 16.3534ZM5.31783 14.5926L5.862 14.8842C6.82746 15.4002 7.90566 15.669 9.00033 15.6667C10.3189 15.6667 11.6078 15.2758 12.7041 14.5432C13.8005 13.8107 14.6549 12.7695 15.1595 11.5513C15.6641 10.3331 15.7961 8.99269 15.5389 7.69948C15.2817 6.40627 14.6467 5.21839 13.7144 4.28604C12.782 3.35369 11.5941 2.71875 10.3009 2.46151C9.00773 2.20428 7.66729 2.3363 6.44911 2.84088C5.23094 3.34547 4.18975 4.19995 3.4572 5.29628C2.72466 6.39261 2.33367 7.68154 2.33367 9.00008C2.33367 10.1117 2.6045 11.1817 3.117 12.1384L3.40783 12.6826L2.862 15.1384L5.31783 14.5926Z" fill="#4466DF"/>
</svg>
