<svg width="12" height="12" viewBox="0 0 12 12" fill="none" xmlns="http://www.w3.org/2000/svg">
<path d="M6 1C5.08929 1 4.23772 1.18099 3.44531 1.54297C2.6529 1.90495 2.02344 2.39323 1.55692 3.00781C1.0904 3.6224 0.857143 4.28646 0.857143 5C0.857143 5.58333 1.01674 6.13932 1.33594 6.66797C1.65513 7.19661 2.10491 7.65365 2.68527 8.03906L3.26786 8.42969L3.08705 9.17969C2.97991 9.65365 2.82366 10.1016 2.6183 10.5234C3.29688 10.1953 3.91071 9.75 4.45982 9.1875L4.74777 8.89062L5.12946 8.9375C5.4375 8.97917 5.72768 9 6 9C6.91071 9 7.76228 8.81901 8.55469 8.45703C9.3471 8.09505 9.97656 7.60677 10.4431 6.99219C10.9096 6.3776 11.1429 5.71354 11.1429 5C11.1429 4.28646 10.9096 3.6224 10.4431 3.00781C9.97656 2.39323 9.3471 1.90495 8.55469 1.54297C7.76228 1.18099 6.91071 1 6 1ZM12 5C12 5.90625 11.7321 6.74349 11.1964 7.51172C10.6607 8.27995 9.93304 8.88672 9.01339 9.33203C8.09375 9.77734 7.08929 10 6 10C5.6875 10 5.36384 9.97917 5.02902 9.9375C4.14509 10.849 3.1183 11.4792 1.94866 11.8281C1.72991 11.901 1.47545 11.9583 1.18527 12H1.15179C1.08482 12 1.02455 11.9727 0.970982 11.918C0.917411 11.8633 0.881696 11.7917 0.863839 11.7031V11.6953C0.850446 11.6745 0.84933 11.6432 0.860491 11.6016C0.871652 11.5599 0.876116 11.5339 0.873884 11.5234C0.871652 11.513 0.881696 11.4883 0.904018 11.4492L0.944196 11.3789L0.991071 11.3125L1.04464 11.2422C1.07589 11.2005 1.14509 11.1107 1.25223 10.9727C1.35938 10.8346 1.43638 10.7357 1.48326 10.6758C1.53013 10.6159 1.59933 10.513 1.69085 10.3672C1.78237 10.2214 1.85491 10.0885 1.90848 9.96875C1.96205 9.84896 2.02232 9.69531 2.08929 9.50781C2.15625 9.32031 2.21429 9.1224 2.26339 8.91406C1.5625 8.45052 1.01004 7.8776 0.606027 7.19531C0.202009 6.51302 0 5.78125 0 5C0 4.09375 0.267857 3.25651 0.803571 2.48828C1.33929 1.72005 2.06696 1.11328 2.98661 0.667969C3.90625 0.222656 4.91071 0 6 0C7.08929 0 8.09375 0.222656 9.01339 0.667969C9.93304 1.11328 10.6607 1.72005 11.1964 2.48828C11.7321 3.25651 12 4.09375 12 5Z" fill="#858585"/>
</svg>
