<svg width="10" height="10" viewBox="0 0 10 10" fill="none" xmlns="http://www.w3.org/2000/svg">
<path d="M8.72002 4.35999L0.980023 0.489987C0.875606 0.441609 0.760748 0.420116 0.645904 0.427464C0.53106 0.434812 0.419877 0.470767 0.322476 0.532056C0.225076 0.593345 0.144551 0.678022 0.0882332 0.778379C0.031915 0.878736 0.0015916 0.991585 2.34038e-05 1.10665V8.84332C-0.000951721 8.96144 0.02856 9.07781 0.0857063 9.18119C0.142853 9.28457 0.225701 9.37146 0.326243 9.43346C0.426785 9.49546 0.541622 9.53048 0.659653 9.53512C0.777684 9.53977 0.894918 9.51389 1.00002 9.45999L8.72002 5.58999C8.83438 5.53258 8.93052 5.44451 8.99771 5.33561C9.06489 5.22671 9.10047 5.10128 9.10047 4.97332C9.10047 4.84536 9.06489 4.71993 8.99771 4.61103C8.93052 4.50213 8.83438 4.41406 8.72002 4.35665V4.35999Z" fill="white"/>
</svg>
