<svg width="19" height="14" viewBox="0 0 19 14" fill="none" xmlns="http://www.w3.org/2000/svg">
<path d="M16.6962 0.451143C16.8071 0.337988 16.9394 0.248095 17.0855 0.186727C17.2316 0.125359 17.3884 0.09375 17.5468 0.09375C17.7053 0.09375 17.8621 0.125359 18.0082 0.186727C18.1543 0.248095 18.2866 0.337988 18.3975 0.451143C18.8623 0.920768 18.8688 1.67964 18.4138 2.15739L8.80515 13.5161C8.69606 13.6359 8.56367 13.7322 8.41609 13.7991C8.26851 13.866 8.10883 13.902 7.94684 13.9051C7.78484 13.9081 7.62392 13.8781 7.47394 13.8168C7.32395 13.7555 7.18804 13.6643 7.07453 13.5486L1.22778 7.62389C1.00229 7.39393 0.875977 7.08471 0.875977 6.76264C0.875977 6.44058 1.00229 6.13135 1.22778 5.90139C1.33868 5.78824 1.47104 5.69834 1.61711 5.63698C1.76318 5.57561 1.92002 5.544 2.07846 5.544C2.2369 5.544 2.39375 5.57561 2.53982 5.63698C2.68589 5.69834 2.81825 5.78824 2.92915 5.90139L7.88865 10.9275L16.6636 0.486893C16.6738 0.474334 16.6846 0.462396 16.6962 0.451143Z" fill="#181818"/>
</svg>
