<svg width="19" height="14" viewBox="0 0 19 14" fill="none" xmlns="http://www.w3.org/2000/svg">
<path d="M16.6962 0.451265C16.8071 0.33811 16.9394 0.248217 17.0855 0.186849C17.2316 0.125481 17.3884 0.0938721 17.5468 0.0938721C17.7053 0.0938721 17.8621 0.125481 18.0082 0.186849C18.1543 0.248217 18.2866 0.33811 18.3975 0.451265C18.8623 0.92089 18.8688 1.67976 18.4138 2.15751L8.80515 13.5163C8.69606 13.6361 8.56367 13.7323 8.41609 13.7992C8.26851 13.8661 8.10883 13.9022 7.94684 13.9052C7.78484 13.9082 7.62392 13.8782 7.47394 13.8169C7.32395 13.7556 7.18804 13.6644 7.07453 13.5488L1.22778 7.62401C1.00229 7.39405 0.875977 7.08483 0.875977 6.76277C0.875977 6.4407 1.00229 6.13147 1.22778 5.90151C1.33868 5.78836 1.47104 5.69847 1.61711 5.6371C1.76318 5.57573 1.92002 5.54412 2.07846 5.54412C2.2369 5.54412 2.39375 5.57573 2.53982 5.6371C2.68589 5.69847 2.81825 5.78836 2.92915 5.90151L7.88865 10.9276L16.6636 0.487015C16.6738 0.474456 16.6846 0.462518 16.6962 0.451265Z" fill="white"/>
</svg>
