<svg width="22" height="20" viewBox="0 0 22 20" fill="none" xmlns="http://www.w3.org/2000/svg">
<path d="M19.4707 2.39509C18.9597 1.88412 18.3531 1.47885 17.6854 1.20245C17.0178 0.926038 16.3022 0.783909 15.5796 0.78418C14.8569 0.784451 14.1415 0.927118 13.474 1.20403C12.8066 1.48094 12.2002 1.88666 11.6896 2.39801L11.0231 3.07262L10.3622 2.39947L10.3579 2.39517C9.84717 1.88445 9.24086 1.47932 8.57356 1.20291C7.90627 0.926508 7.19107 0.784245 6.4688 0.784245C5.74652 0.784245 5.03132 0.926508 4.36403 1.20291C3.69673 1.47932 3.09042 1.88445 2.57969 2.39517L2.28278 2.69209C1.25133 3.72354 0.671875 5.12248 0.671875 6.58117C0.671875 8.03985 1.25133 9.4388 2.28278 10.4702L10.1191 18.3065L11.0041 19.2337L11.0252 19.2125L11.0481 19.2354L11.8772 18.3606L19.7676 10.4701C20.7975 9.43785 21.3759 8.03921 21.3759 6.58104C21.3759 5.12286 20.7975 3.72423 19.7676 2.69196L19.4707 2.39509ZM18.7952 9.49786L11.0252 17.268L3.25499 9.49786C2.48141 8.72428 2.04682 7.67507 2.04682 6.58106C2.04682 5.48705 2.48141 4.43784 3.25499 3.66425L3.55195 3.36734C4.32516 2.59414 5.37373 2.15958 6.4672 2.15917C7.56068 2.15876 8.60958 2.59253 9.38337 3.36515L11.0202 5.03178L12.6648 3.36734C13.0478 2.9843 13.5025 2.68045 14.003 2.47314C14.5035 2.26584 15.0399 2.15914 15.5816 2.15914C16.1233 2.15914 16.6597 2.26584 17.1602 2.47314C17.6606 2.68045 18.1154 2.9843 18.4984 3.36734L18.7953 3.66421C19.5677 4.43844 20.0015 5.48743 20.0015 6.58107C20.0015 7.67471 19.5676 8.72369 18.7952 9.49786Z" fill="#4466DF"/>
</svg>
