<svg width="16" height="10" viewBox="0 0 16 10" fill="none" xmlns="http://www.w3.org/2000/svg">
<path d="M0.958435 4.17125L6.86062 0.640002C7.00664 0.551158 7.17383 0.503156 7.34474 0.501013C7.51564 0.498869 7.68399 0.542661 7.83218 0.627815C7.99298 0.721451 8.12614 0.855975 8.21813 1.01772C8.31012 1.17947 8.35766 1.36268 8.35593 1.54875V4.01906L14.0034 0.639065C14.1494 0.550221 14.3166 0.502219 14.4875 0.500075C14.6585 0.497931 14.8268 0.541724 14.975 0.626877C15.1358 0.720514 15.269 0.855037 15.3609 1.01679C15.4529 1.17853 15.5005 1.36175 15.4987 1.54781V8.45406C15.5006 8.64019 15.4531 8.82348 15.3611 8.98529C15.2691 9.14711 15.1359 9.28168 14.975 9.37531C14.8268 9.46047 14.6585 9.50426 14.4875 9.50212C14.3166 9.49997 14.1494 9.45197 14.0034 9.36313L8.35593 5.98156V8.45281C8.35797 8.63915 8.31057 8.8227 8.21857 8.98475C8.12656 9.14681 7.99324 9.28157 7.83218 9.37531C7.68399 9.46047 7.51564 9.50426 7.34474 9.50212C7.17383 9.49997 7.00664 9.45197 6.86062 9.36313L0.958435 5.83188C0.818123 5.74398 0.702445 5.62188 0.622257 5.47703C0.542068 5.33217 0.5 5.16932 0.5 5.00375C0.5 4.83818 0.542068 4.67533 0.622257 4.53048C0.702445 4.38562 0.818123 4.26352 0.958435 4.17563V4.17125Z" fill="#858585"/>
</svg>
