<svg width="18" height="10" viewBox="0 0 18 10" fill="none" xmlns="http://www.w3.org/2000/svg">
<path d="M16.4967 0.988996L8.99975 8.297L1.50275 0.988996C1.3688 0.858163 1.18899 0.784917 1.00175 0.784917C0.814507 0.784917 0.634695 0.858163 0.500748 0.988996C0.435891 1.05254 0.384366 1.12839 0.349191 1.2121C0.314016 1.29581 0.295898 1.3857 0.295898 1.4765C0.295898 1.5673 0.314016 1.65718 0.349191 1.74089C0.384366 1.8246 0.435891 1.90045 0.500748 1.964L8.47625 9.74C8.61631 9.87652 8.80416 9.95292 8.99975 9.95292C9.19534 9.95292 9.38319 9.87652 9.52325 9.74L17.4987 1.9655C17.5641 1.9019 17.616 1.82587 17.6514 1.74188C17.6869 1.65789 17.7051 1.56766 17.7051 1.4765C17.7051 1.38534 17.6869 1.2951 17.6514 1.21111C17.616 1.12712 17.5641 1.05109 17.4987 0.987496C17.3648 0.856662 17.185 0.783417 16.9977 0.783417C16.8105 0.783417 16.6307 0.856662 16.4967 0.987496V0.988996Z" fill="white"/>
</svg>
