<svg width="22" height="20" viewBox="0 0 22 20" fill="none" xmlns="http://www.w3.org/2000/svg">
<path d="M14.6458 0.724609L18.1244 6.75011H21.8327V8.91678H20.5684L19.7483 18.7567C19.7258 19.0274 19.6024 19.2798 19.4025 19.4638C19.2027 19.6478 18.941 19.75 18.6693 19.7501H3.32935C3.0577 19.75 2.79602 19.6478 2.59617 19.4638C2.39632 19.2798 2.2729 19.0274 2.25035 18.7567L1.42918 8.91678H0.166016V6.75011H3.87318L7.35285 0.724609L9.22918 1.80794L6.37568 6.75011H15.6219L12.7695 1.80794L14.6458 0.724609ZM18.3942 8.91678H3.60343L4.32602 17.5834H17.6716L18.3942 8.91678ZM12.0827 11.0834V15.4168H9.91601V11.0834H12.0827ZM7.74935 11.0834V15.4168H5.58268V11.0834H7.74935ZM16.416 11.0834V15.4168H14.2493V11.0834H16.416Z" fill="#4466DF"/>
</svg>
