<svg width="12" height="12" viewBox="0 0 12 12" fill="none" xmlns="http://www.w3.org/2000/svg">
<path d="M2.0239 11.8082C1.51521 11.8082 1.02681 11.5977 0.637556 11.208C-0.225506 10.3422 -0.225506 8.93385 0.637357 8.06854L7.36711 0.922166C8.41711 -0.129521 10.0255 -0.0350212 11.1992 1.14023C11.7252 1.6671 12.0203 2.42667 12.0092 3.22504C11.9982 4.01499 11.6895 4.77098 11.1621 5.29935L6.07597 10.714C5.93441 10.8657 5.69703 10.8726 5.54592 10.7303C5.39517 10.5878 5.38786 10.3501 5.52998 10.1989L10.6238 4.77604C11.0222 4.37685 11.2508 3.81059 11.2592 3.21453C11.2677 2.6181 11.0522 2.05578 10.669 1.67159C9.94897 0.950092 8.77671 0.57228 7.90521 1.44584L1.17565 8.59222C0.597021 9.17233 0.597208 10.104 1.16815 10.6765C1.43588 10.9444 1.7537 11.0749 2.09213 11.0544C2.42701 11.034 2.77126 10.8623 3.06151 10.5713L8.41612 4.87201C8.61019 4.67757 9.00019 4.20094 8.60325 3.80307C8.37844 3.57788 8.22056 3.59176 8.16863 3.59607C8.02032 3.60919 7.84707 3.71176 7.66726 3.89213L3.63695 8.17857C3.49463 8.32988 3.25707 8.33719 3.10687 8.19451C2.95594 8.05238 2.949 7.81426 3.09093 7.66351L7.12858 3.36901C7.44602 3.05007 7.77058 2.87719 8.10096 2.84757C8.35877 2.82468 8.74221 2.87963 9.13333 3.27188C9.71383 3.85349 9.64165 4.70663 8.95427 5.39551L3.59965 11.0944C3.17215 11.5234 2.65595 11.7726 2.13807 11.8044C2.10001 11.807 2.06195 11.8082 2.02388 11.8082L2.0239 11.8082Z" fill="#858585"/>
</svg>
