<svg width="12" height="7" viewBox="0 0 12 7" fill="none" xmlns="http://www.w3.org/2000/svg">
<path d="M0.75 6.1875C0.75 6.07147 0.796094 5.96019 0.878141 5.87814C0.960188 5.79609 1.07147 5.75 1.1875 5.75H3.8125C3.92853 5.75 4.03981 5.79609 4.12186 5.87814C4.20391 5.96019 4.25 6.07147 4.25 6.1875C4.25 6.30353 4.20391 6.41481 4.12186 6.49686C4.03981 6.57891 3.92853 6.625 3.8125 6.625H1.1875C1.07147 6.625 0.960188 6.57891 0.878141 6.49686C0.796094 6.41481 0.75 6.30353 0.75 6.1875ZM0.75 3.5625C0.75 3.44647 0.796094 3.33519 0.878141 3.25314C0.960188 3.17109 1.07147 3.125 1.1875 3.125H7.3125C7.42853 3.125 7.53981 3.17109 7.62186 3.25314C7.70391 3.33519 7.75 3.44647 7.75 3.5625C7.75 3.67853 7.70391 3.78981 7.62186 3.87186C7.53981 3.95391 7.42853 4 7.3125 4H1.1875C1.07147 4 0.960188 3.95391 0.878141 3.87186C0.796094 3.78981 0.75 3.67853 0.75 3.5625ZM0.75 0.9375C0.75 0.821468 0.796094 0.710188 0.878141 0.628141C0.960188 0.546094 1.07147 0.5 1.1875 0.5H10.8125C10.9285 0.5 11.0398 0.546094 11.1219 0.628141C11.2039 0.710188 11.25 0.821468 11.25 0.9375C11.25 1.05353 11.2039 1.16481 11.1219 1.24686C11.0398 1.32891 10.9285 1.375 10.8125 1.375H1.1875C1.07147 1.375 0.960188 1.32891 0.878141 1.24686C0.796094 1.16481 0.75 1.05353 0.75 0.9375Z" fill="black"/>
</svg>
