<svg width="18" height="16" viewBox="0 0 18 16" fill="none" xmlns="http://www.w3.org/2000/svg">
<path d="M15.9297 1.77798C15.5116 1.35991 15.0153 1.02833 14.469 0.802178C13.9227 0.576027 13.3373 0.459739 12.746 0.459961C12.1548 0.460183 11.5694 0.576911 11.0233 0.803472C10.4772 1.03003 9.9811 1.36199 9.56335 1.78037L9.01804 2.33232L8.47727 1.78156L8.47375 1.77805C8.05589 1.36018 7.55981 1.02871 7.01385 0.80256C6.46788 0.576412 5.88271 0.460014 5.29176 0.460014C4.70081 0.460014 4.11565 0.576412 3.56968 0.80256C3.02371 1.02871 2.52764 1.36018 2.10977 1.77805L1.86684 2.02098C1.02293 2.86489 0.548828 4.00948 0.548828 5.20295C0.548828 6.39642 1.02293 7.54101 1.86684 8.38492L8.27839 14.7964L9.00243 15.555L9.0197 15.5377L9.03843 15.5564L9.71681 14.8407L16.1726 8.38482C17.0153 7.54024 17.4885 6.3959 17.4885 5.20284C17.4885 4.00979 17.0153 2.86545 16.1726 2.02087L15.9297 1.77798ZM15.377 7.58934L9.0197 13.9467L2.66229 7.58934C2.02936 6.9564 1.67378 6.09796 1.67378 5.20286C1.67378 4.30776 2.02936 3.44932 2.66229 2.81639L2.90525 2.57346C3.53788 1.94084 4.3958 1.58529 5.29046 1.58495C6.18512 1.58461 7.04331 1.93952 7.67641 2.57166L9.01562 3.93527L10.3612 2.57346C10.6746 2.26006 11.0466 2.01145 11.4561 1.84184C11.8656 1.67223 12.3045 1.58493 12.7477 1.58493C13.1909 1.58493 13.6298 1.67223 14.0392 1.84184C14.4487 2.01145 14.8208 2.26006 15.1342 2.57346L15.3771 2.81635C16.0091 3.44981 16.364 4.30808 16.364 5.20287C16.3639 6.09767 16.009 6.95592 15.377 7.58934Z" fill="white"/>
</svg>
