<svg width="20" height="20" viewBox="0 0 20 20" fill="none" xmlns="http://www.w3.org/2000/svg">
<path d="M17.8991 5.02848C17.9112 5.24123 17.9112 5.45397 17.9112 5.66868C17.9112 12.2108 13.8144 19.7559 6.32331 19.7559V19.752C4.11041 19.7559 1.94347 18.9853 0.0805664 17.5324C0.402341 17.5795 0.725728 17.603 1.04992 17.604C2.88379 17.6059 4.66524 16.8579 6.10799 15.4804C4.36524 15.4402 2.83702 14.0589 2.30315 12.0422C2.91363 12.1853 3.54266 12.1559 4.14186 11.9569C2.24186 11.4902 0.874921 9.46083 0.874921 7.10397C0.874921 7.0824 0.874921 7.06181 0.874921 7.04122C1.44105 7.42456 2.07492 7.6373 2.72331 7.66083C0.933792 6.20691 0.382179 3.31279 1.46282 1.05005C3.53057 4.14319 6.58137 6.02358 9.85637 6.2226C9.52815 4.50299 9.97653 2.70103 11.0346 1.49221C12.6749 -0.382304 15.2548 -0.286225 16.7967 1.70691C17.7088 1.48828 18.583 1.08142 19.383 0.504951C19.079 1.65103 18.4427 2.62456 17.5927 3.24319C18.3999 3.1275 19.1886 2.86475 19.9314 2.46377C19.3846 3.45985 18.6959 4.3275 17.8991 5.02848Z" fill="white"/>
</svg>
